<?xml version="1.0" encoding="UTF-8"?>
<svg version="1.1" xmlns="http://www.w3.org/2000/svg" width="512" height="512">
<path d="M0 0 C19.56226986 16.51448048 31.5169543 36.13543247 34.45605469 61.77197266 C36.27978814 85.75531671 28.85929969 107.11007544 14.07714844 125.77587891 C0.49140137 141.45509582 -17.98404473 151.73022094 -38.54394531 154.77197266 C-64.7386795 156.41965462 -88.11916472 151.85548716 -108.45800781 134.55322266 C-121.03121404 123.40441518 -129.29570221 109.63598021 -134.54394531 93.77197266 C-134.54394531 92.78197266 -134.54394531 91.79197266 -134.54394531 90.77197266 C-135.79408165 90.77658162 -137.04421799 90.78119059 -138.33223724 90.78593922 C-168.0174243 90.89426169 -197.70256033 90.97669177 -227.38789663 91.0272993 C-231.04277779 91.03355273 -234.69765853 91.04002435 -238.35253906 91.04663086 C-239.44395634 91.04859819 -239.44395634 91.04859819 -240.55742246 91.05060526 C-252.33409403 91.0723534 -264.11064339 91.11177162 -275.8872425 91.15773664 C-287.97388614 91.20451784 -300.06046583 91.23227155 -312.14719629 91.24241513 C-318.93501287 91.24865618 -325.72257475 91.26364887 -332.51029968 91.30062294 C-338.89934687 91.33456291 -345.28800288 91.34502936 -351.67713165 91.33751106 C-354.02167639 91.33888647 -356.36623422 91.34883037 -358.71070099 91.36800003 C-361.91385553 91.39290585 -365.1155364 91.38688571 -368.31872559 91.37324524 C-369.24481424 91.38780945 -370.17090289 91.40237365 -371.12505484 91.4173792 C-378.20348723 91.33599637 -382.92780644 89.19081776 -388.06992102 84.32925302 C-392.42216187 79.50677192 -394.06336794 74.45659701 -393.85253906 67.98291016 C-392.85636328 60.84575205 -390.0407945 55.41214927 -384.42285156 50.92822266 C-378.88582869 47.52082397 -374.05270194 47.49181842 -367.717453 47.53146362 C-366.22258998 47.52890035 -366.22258998 47.52890035 -364.69752771 47.52628529 C-361.35483814 47.52298841 -358.01234885 47.5339975 -354.66967773 47.54492188 C-352.27488205 47.54548595 -349.88008601 47.54516951 -347.48529053 47.54403687 C-341.655237 47.54352188 -335.82524918 47.55219823 -329.99521067 47.56491219 C-323.21079473 47.57921263 -316.42638813 47.58220281 -309.64195923 47.58448853 C-297.54327469 47.58886456 -285.44461715 47.60217119 -273.34594727 47.62109375 C-261.59399551 47.63945491 -249.84205109 47.65361026 -238.09008789 47.66210938 C-237.36556158 47.66263482 -236.64103527 47.66316027 -235.89455362 47.66370164 C-232.25977753 47.66631173 -228.62500138 47.66883915 -224.9902252 47.67132545 C-194.84144592 47.69205511 -164.69269936 47.72742695 -134.54394531 47.77197266 C-134.23148361 46.4977243 -133.91902191 45.22347595 -133.59709167 43.91061401 C-132.90066253 41.07051014 -132.14909054 38.47202099 -130.84472656 35.84228516 C-130.52665039 35.19743164 -130.20857422 34.55257812 -129.88085938 33.88818359 C-129.54280273 33.23108398 -129.20474609 32.57398438 -128.85644531 31.89697266 C-128.49905273 31.19862305 -128.14166016 30.50027344 -127.7734375 29.78076172 C-116.61324799 8.38132113 -99.29338154 -5.71710237 -76.54394531 -13.22802734 C-51.54401198 -21.07580665 -20.66314384 -16.4351065 0 0 Z M-85.97363281 44.52587891 C-92.96000522 54.51882451 -94.43771286 64.82569944 -93.54394531 76.77197266 C-91.91836226 84.62121656 -88.87159848 90.81671637 -83.54394531 96.77197266 C-82.78082031 97.63822266 -82.01769531 98.50447266 -81.23144531 99.39697266 C-72.28735268 107.30105451 -61.37802766 112.75168399 -49.14160156 112.15478516 C-35.77423846 110.18485796 -26.34831056 104.40110945 -17.48144531 94.45947266 C-10.41557284 84.65842375 -8.70214729 74.73084931 -9.54394531 62.77197266 C-11.47364435 51.24242631 -18.19272448 41.30045225 -27.45019531 34.33837891 C-29.43211959 33.01316367 -31.42658645 31.86674343 -33.54394531 30.77197266 C-34.47207031 30.29050781 -34.47207031 30.29050781 -35.41894531 29.79931641 C-53.97090463 22.00894286 -73.72553642 29.91361507 -85.97363281 44.52587891 Z " fill="#000000" transform="translate(435.5439453125,101.22802734375)"/>
<path d="M0 0 C14.90140206 11.63021373 25.86384464 26.81192645 31.28833008 45.02075195 C31.28833008 46.01075195 31.28833008 47.00075195 31.28833008 48.02075195 C32.53846642 48.01614299 33.78860275 48.01153402 35.07662201 48.00678539 C64.76180907 47.89846292 94.4469451 47.81603284 124.13228139 47.76542531 C127.78716255 47.75917188 131.44204329 47.75270026 135.09692383 47.74609375 C136.18834111 47.74412642 136.18834111 47.74412642 137.30180722 47.74211935 C149.0784788 47.72037121 160.85502816 47.68095299 172.63162726 47.63498797 C184.7182709 47.58820677 196.8048506 47.56045306 208.89158106 47.55030948 C215.67939764 47.54406843 222.46695952 47.52907574 229.25468445 47.49210167 C235.64373164 47.4581617 242.03238764 47.44769525 248.42151642 47.45521355 C250.76606115 47.45383814 253.11061898 47.44389424 255.45508575 47.42472458 C258.65824029 47.39981876 261.85992116 47.4058389 265.06311035 47.41947937 C265.989199 47.40491516 266.91528766 47.39035096 267.8694396 47.37534541 C274.94787199 47.45672823 279.67219121 49.60190685 284.81430578 54.46347159 C289.16654664 59.28595268 290.80775271 64.3361276 290.59692383 70.80981445 C289.60074805 77.94697256 286.78517927 83.38057534 281.16723633 87.86450195 C275.63021346 91.27190064 270.79708671 91.30090618 264.46183777 91.26126099 C263.46526242 91.26296984 262.46868707 91.26467869 261.44191247 91.26643932 C258.0992229 91.26973619 254.75673361 91.25872711 251.4140625 91.24780273 C249.01926681 91.24723866 246.62447078 91.2475551 244.22967529 91.24868774 C238.39962176 91.24920273 232.56963395 91.24052638 226.73959544 91.22781242 C219.9551795 91.21351198 213.17077289 91.2105218 206.38634399 91.20823608 C194.28765946 91.20386005 182.18900191 91.19055342 170.09033203 91.17163086 C158.33838028 91.1532697 146.58643586 91.13911435 134.83447266 91.13061523 C134.10994635 91.13008979 133.38542004 91.12956434 132.63893839 91.12902297 C129.00416229 91.12641287 125.36938614 91.12388546 121.73460996 91.12139916 C91.58583068 91.1006695 61.43708413 91.06529766 31.28833008 91.02075195 C31.09261414 91.76795502 30.89689819 92.51515808 30.69525146 93.28500366 C30.3019162 94.76174057 30.3019162 94.76174057 29.90063477 96.26831055 C29.64304382 97.24238861 29.38545288 98.21646667 29.12005615 99.22006226 C28.00849852 102.96303499 26.44095812 106.25069336 24.53833008 109.64575195 C24.18617432 110.28544922 23.83401855 110.92514648 23.47119141 111.58422852 C20.53086202 116.81001078 17.30581042 121.55331381 13.28833008 126.02075195 C12.49942383 126.9024707 11.71051758 127.78418945 10.89770508 128.69262695 C-3.97972838 144.44008576 -24.18357368 154.37163651 -45.98901367 155.30200195 C-70.64739589 155.91389357 -92.18315274 149.32713301 -110.43432617 132.20043945 C-111.18584961 131.48114258 -111.93737305 130.7618457 -112.71166992 130.02075195 C-113.34975586 129.44583008 -113.9878418 128.8709082 -114.64526367 128.27856445 C-129.44134527 114.5040386 -136.70155104 93.16493271 -137.93432617 73.4621582 C-138.52111503 49.35278993 -130.63548953 28.3694298 -114.89916992 10.20825195 C-85.16416258 -20.99288826 -34.75449203 -25.73810495 0 0 Z M-77.71166992 36.02075195 C-78.98010742 36.85606445 -78.98010742 36.85606445 -80.27416992 37.70825195 C-88.20632105 45.2336261 -92.99291862 54.65355113 -94.05541992 65.54418945 C-94.40194928 78.85669232 -90.59415507 90.06850734 -81.33666992 99.83325195 C-77.77668248 103.15122271 -74.03299012 105.78643298 -69.71166992 108.02075195 C-69.09291992 108.34172852 -68.47416992 108.66270508 -67.83666992 108.9934082 C-58.7014475 112.82948793 -45.96012183 112.50499503 -36.64916992 109.45825195 C-24.91771202 104.33809039 -16.70831486 95.19188326 -11.65698242 83.6340332 C-8.04073944 73.63706397 -8.73281202 62.55563636 -12.44213867 52.7121582 C-14.35317853 48.6607537 -16.73402749 45.34916378 -19.71166992 42.02075195 C-20.85635742 40.72137695 -20.85635742 40.72137695 -22.02416992 39.39575195 C-31.26950934 31.22545201 -41.37767759 26.59083115 -53.82885742 26.73950195 C-62.59960417 27.59518456 -70.65284262 30.82396543 -77.71166992 36.02075195 Z " fill="#000000" transform="translate(179.711669921875,271.979248046875)"/>
</svg>
